<?xml version="1.0" encoding="UTF-8"?>
<svg width="20px" height="20px" viewBox="0 0 20 20" version="1.1" xmlns="http://www.w3.org/2000/svg" xmlns:xlink="http://www.w3.org/1999/xlink">
    <!-- Generator: Sketch 50 (54983) - http://www.bohemiancoding.com/sketch -->
    <title>Icons/User</title>
    <desc>Created with Sketch.</desc>
    <defs>
        <path d="M15.90875,13.4325 C17.535,12.446875 18.625,10.665625 18.625,8.625 C18.625,5.518125 16.106875,3 13,3 C9.893125,3 7.375,5.518125 7.375,8.625 C7.375,10.665625 8.465,12.446875 10.09125,13.4325 C5.9875,14.67875 3,18.489375 3,23 L23,23 C23,18.489375 20.0125,14.67875 15.90875,13.4325 Z M8,8.625 C8,5.86357625 10.2385763,3.625 13,3.625 C15.7614237,3.625 18,5.86357625 18,8.625 C17.9995811,10.6090617 16.8257836,12.405075 15.00875,13.201875 C14.7043061,13.3354878 14.3873298,13.4384946 14.0625,13.509375 L14.04,13.515 C13.8917822,13.5456869 13.7422551,13.5696696 13.591875,13.586875 C13.569375,13.589375 13.548125,13.594375 13.525625,13.596875 C13.176642,13.6346091 12.824608,13.6346091 12.475625,13.596875 C12.453125,13.594375 12.431875,13.589375 12.409375,13.586875 C12.2589949,13.5696696 12.1094678,13.5456869 11.96125,13.515 L11.93875,13.509375 C9.63997451,13.0110544 7.99985235,10.9771676 8,8.625 Z M10.949375,13.85875 C11.585625,14.108125 12.275625,14.25 13,14.25 C13.724375,14.25 14.414375,14.108125 15.050625,13.85875 C19.04,14.751875 22.06625,18.184375 22.34375,22.375 L3.65625,22.375 C3.93375,18.184375 6.96,14.751875 10.949375,13.85875 Z" id="path-1"></path>
    </defs>
    <g id="Symbols" stroke="none" stroke-width="1" fill="none" fill-rule="evenodd">
        <g id="User-Status" transform="translate(-4.000000, -5.000000)">
            <g id="Icons/User" transform="translate(1.000000, 2.000000)">
                <mask id="mask-2" fill="white">
                    <use xlink:href="#path-1"></use>
                </mask>
                <use id="Shape" fill="#00CEEA" fill-rule="evenodd" xlink:href="#path-1"></use>
                <g id="Colors/Blue-Brand" mask="url(#mask-2)" fill="#A666FF" fill-rule="evenodd">
                    <rect id="layer" x="0" y="0" width="25" height="25"></rect>
                </g>
            </g>
        </g>
    </g>
</svg>