<?xml version="1.0" encoding="UTF-8"?>
<svg width="13px" height="13px" viewBox="0 0 13 13" version="1.1" xmlns="http://www.w3.org/2000/svg" xmlns:xlink="http://www.w3.org/1999/xlink">
    <defs>
        <path d="M17.2124255,16.9845502 L17.2124255,10.3766428 C17.2124255,10.0056436 17.5184951,9.69254221 17.8960512,9.69254221 C18.2762396,9.69254221 18.579677,9.99882449 18.579677,10.3766428 L18.579677,16.9845502 L25.4154596,16.9845502 C25.7864589,16.9845502 26.0995602,17.2906199 26.0995602,17.668176 C26.0995602,18.0483643 25.793278,18.3518017 25.4154596,18.3518017 L18.579677,18.3518017 L18.579677,25.4154596 C18.579677,25.7864589 18.2736073,26.0995602 17.8960512,26.0995602 C17.5158629,26.0995602 17.2124255,25.793278 17.2124255,25.4154596 L17.2124255,18.3518017 L10.3766428,18.3518017 C10.0056436,18.3518017 9.69254221,18.0457321 9.69254221,17.668176 C9.69254221,17.2879876 9.99882449,16.9845502 10.3766428,16.9845502 L17.2124255,16.9845502 Z" id="path-1"></path>
    </defs>
    <g id="Symbols" stroke="none" stroke-width="1" fill="none" fill-rule="evenodd">
        <g id="Icons/Error" transform="translate(-11.000000, -11.000000)">
            <mask id="mask-2" fill="white">
                <use xlink:href="#path-1"></use>
            </mask>
            <use id="Combined-Shape" fill="#ffffff" transform="translate(17.896051, 17.896051) rotate(-45.000000) translate(-17.896051, -17.896051) " xlink:href="#path-1"></use>
        </g>
    </g>
</svg>
