<svg width="21" height="21" viewBox="0 0 21 21" fill="none" xmlns="http://www.w3.org/2000/svg">
<path fill-rule="evenodd" clip-rule="evenodd" d="M10 0C10.251 0 10.4652 0.0887775 10.6428 0.266335C10.8203 0.443893 10.9091 0.658143 10.9091 0.909091V11.4418L13.8992 8.4446C14.0744 8.26941 14.2898 8.18182 14.5455 8.18182C14.8059 8.18182 15.0225 8.26823 15.1953 8.44105C15.3682 8.61387 15.4546 8.83049 15.4546 9.09091C15.4546 9.34659 15.367 9.56203 15.1918 9.73722L10.6463 14.2827C10.4711 14.4579 10.2557 14.5455 10 14.5455C9.74433 14.5455 9.5289 14.4579 9.35371 14.2827L4.80826 9.73722C4.63307 9.55256 4.54547 9.33712 4.54547 9.09091C4.54547 8.83996 4.63425 8.62571 4.81181 8.44815C4.98936 8.2706 5.20361 8.18182 5.45456 8.18182C5.71025 8.18182 5.92568 8.26941 6.10087 8.4446L9.09093 11.4418V0.909091C9.09093 0.658143 9.1797 0.443893 9.35726 0.266335C9.53482 0.0887775 9.74907 0 10 0ZM19.0909 12.7271C19.3419 12.7271 19.5561 12.8158 19.7337 12.9934C19.9112 13.1709 20 13.3852 20 13.6361V17.2725C20 18.0301 19.7372 18.6716 19.2116 19.1972C18.6766 19.7323 18.0374 19.9998 17.294 19.9998H2.72727C1.9839 19.9998 1.33996 19.7346 0.795455 19.2043C0.265149 18.6598 0 18.0159 0 17.2725V13.6361C0 13.3852 0.0887775 13.1709 0.266335 12.9934C0.443893 12.8158 0.658143 12.7271 0.909091 12.7271C1.16004 12.7271 1.37429 12.8158 1.55185 12.9934C1.7294 13.1709 1.81818 13.3852 1.81818 13.6361V17.2725C1.81818 17.5235 1.90696 17.7377 2.08452 17.9153C2.26207 18.0928 2.47632 18.1816 2.72727 18.1816H17.294C17.5402 18.1816 17.7498 18.0928 17.9226 17.9153C18.0954 17.7377 18.1818 17.5235 18.1818 17.2725V13.6361C18.1818 13.3852 18.2706 13.1709 18.4482 12.9934C18.6257 12.8158 18.84 12.7271 19.0909 12.7271Z" transform="translate(0.579102 20.5391) rotate(-90)" fill="white"/>
</svg>
