<?xml version="1.0" encoding="UTF-8"?>
<svg width="21px" height="23px" viewBox="0 0 21 23" version="1.1" xmlns="http://www.w3.org/2000/svg" xmlns:xlink="http://www.w3.org/1999/xlink">
    <!-- Generator: Sketch 50.2 (55047) - http://www.bohemiancoding.com/sketch -->
    <title>Shape</title>
    <desc>Created with Sketch.</desc>
    <defs></defs>
    <g id="Symbols" stroke="none" stroke-width="1" fill="none" fill-rule="evenodd" opacity="0.799999952">
        <g id="Icons/Entities/Diesel-Generator" transform="translate(-8.000000, -7.000000)" fill="#FFFFFF" fill-rule="nonzero">
            <path d="M27.8152597,12.207771 L23.2476875,7.61557577 L21.9426669,8.92059639 L24.5403966,11.5183261 C23.3831142,11.9615407 22.5582426,13.0757328 22.5582426,14.3869092 C22.5582426,16.0858983 23.9371324,17.464788 25.6361215,17.464788 C26.0731803,17.464788 26.4917718,17.3724517 26.867273,17.2062462 L26.867273,26.0828488 C26.867273,26.7599821 26.3132548,27.3140003 25.6361215,27.3140003 C24.9589881,27.3140003 24.4049699,26.7599821 24.4049699,26.0828488 L24.4049699,20.5426669 C24.4049699,19.1822444 23.3030893,18.0803638 21.9426669,18.0803638 L20.7115153,18.0803638 L20.7115153,9.46230307 C20.7115153,8.10188062 19.6096347,7 18.2492123,7 L10.8623031,7 C9.50188062,7 8.4,8.10188062 8.4,9.46230307 L8.4,29.1607276 L20.7115153,29.1607276 L20.7115153,19.9270911 L22.5582426,19.9270911 L22.5582426,26.0828488 C22.5582426,27.7818379 23.9371324,29.1607276 25.6361215,29.1607276 C27.3351106,29.1607276 28.7140003,27.7818379 28.7140003,26.0828488 L28.7140003,14.3869092 C28.7140003,13.5374146 28.3692779,12.7679449 27.8152597,12.207771 Z M18.2492123,15.6180607 L10.8623031,15.6180607 L10.8623031,9.46230307 L18.2492123,9.46230307 L18.2492123,15.6180607 Z M25.6361215,15.6180607 C24.9589881,15.6180607 24.4049699,15.0640426 24.4049699,14.3869092 C24.4049699,13.7097759 24.9589881,13.1557577 25.6361215,13.1557577 C26.3132548,13.1557577 26.867273,13.7097759 26.867273,14.3869092 C26.867273,15.0640426 26.3132548,15.6180607 25.6361215,15.6180607 Z" id="Shape"></path>
        </g>
    </g>
</svg>