<?xml version="1.0" encoding="UTF-8"?>
<svg width="26px" height="26px" viewBox="0 0 26 26" version="1.1" xmlns="http://www.w3.org/2000/svg" xmlns:xlink="http://www.w3.org/1999/xlink">
    <!-- Generator: Sketch 50.2 (55047) - http://www.bohemiancoding.com/sketch -->
    <title>Shape</title>
    <desc>Created with Sketch.</desc>
    <defs>
        <path d="M25.6555615,17.6103772 L27.1774555,19.1322712 C27.3005023,19.255318 27.3652637,19.4236977 27.3652637,19.5920775 C27.3652637,19.7669334 27.3005023,19.928837 27.1774555,20.0518838 L24.4121417,22.8171976 C22.9245373,24.3085431 20.9037591,25.1452899 18.7973241,25.1421336 C17.0940981,25.1421336 15.4750619,24.6110897 14.1344999,23.6267157 C13.7718358,25.3169895 12.5219398,28.2183024 8.29301727,29.5847689 C7.48349917,29.8438147 6.66102878,29.9539092 5.955129,30.0316229 C4.89304125,30.1481935 4.54332943,28.8853453 5.81265381,28.7493463 C6.45379215,28.6781087 7.1985488,28.5744904 7.89149629,28.3478253 C12.4442261,26.8777404 12.9364131,23.5230974 12.9817461,22.609961 C11.6102968,21.1435947 10.8484922,19.2101392 10.8510945,17.2023801 C10.8510945,15.0782046 11.680041,13.083552 13.1825066,11.5810864 L15.9413443,8.81577255 C16.1874378,8.5761552 16.6148633,8.5761552 16.8609569,8.81577255 L18.3828509,10.3376666 L23.5378621,5.18913146 C23.7009783,5.02601535 23.9387252,4.96231125 24.1615459,5.02201589 C24.3843667,5.08172053 24.5584095,5.25576335 24.6181141,5.4785841 C24.6778188,5.70140486 24.6141147,5.93915177 24.4509986,6.10226788 L19.3024634,11.2572791 L24.7424251,16.6972408 L29.8909602,11.5422295 C30.1435298,11.2896599 30.551527,11.2896599 30.8105728,11.5422295 C31.0631424,11.7947992 31.0631424,12.2027963 30.8105728,12.4553659 L25.6555615,17.6103772 Z" id="path-1"></path>
    </defs>
    <g id="Symbols" stroke="none" stroke-width="1" fill="none" fill-rule="evenodd">
        <g id="Icons/Devices/Load" transform="translate(-5.000000, -5.000000)">
            <mask id="mask-2" fill="white">
                <use xlink:href="#path-1"></use>
            </mask>
            <use id="Shape" fill="#FFFFFF" fill-rule="nonzero" xlink:href="#path-1"></use>
        </g>
    </g>
</svg>