<?xml version="1.0" encoding="UTF-8"?>
<svg width="26px" height="26px" viewBox="0 0 26 26" version="1.1" xmlns="http://www.w3.org/2000/svg" xmlns:xlink="http://www.w3.org/1999/xlink">
    <!-- Generator: Sketch 50.2 (55047) - http://www.bohemiancoding.com/sketch -->
    <title>Combined Shape</title>
    <desc>Created with Sketch.</desc>
    <defs>
        <path d="M21.1478855,26.9192612 C21.1478855,27.1926032 20.9240212,27.4168509 20.6502958,27.4168509 L14.9190647,27.4168509 C14.6454671,27.4168509 14.4217307,27.1926032 14.4217307,26.9192612 C14.4217307,26.6452801 14.6455949,26.4216715 14.9190647,26.4216715 L20.6502958,26.4216715 C20.9240212,26.4216715 21.1478855,26.6452801 21.1478855,26.9192612 Z M17.7849359,9.19882866 C17.5112104,9.19882866 17.2873462,8.97522013 17.2873462,8.7013668 L17.2873462,5.49797325 C17.2873462,5.22399208 17.5112104,5 17.7849359,5 C18.0586614,5 18.2825256,5.22411993 18.2825256,5.49797325 L18.2825256,8.70123895 C18.2825256,8.97522013 18.0586614,9.19882866 17.7849359,9.19882866 Z M22.0781174,10.3492172 C21.8412125,10.2126741 21.7592611,9.90673056 21.8960599,9.66944215 L23.4977567,6.8954946 C23.6345555,6.65833404 23.940499,6.57651045 24.177276,6.71330926 C24.4143087,6.84998023 24.496388,7.15566805 24.3595892,7.39282861 L22.7577646,10.1670319 C22.6207101,10.4041924 22.315278,10.4857603 22.0781174,10.3492172 Z M25.2209104,13.4925215 C25.0841115,13.2551053 25.1659351,12.9492896 25.4033514,12.8127465 L28.1775546,11.2109219 C28.4144595,11.0738674 28.720403,11.1559466 28.8572018,11.3931072 C28.9940006,11.6300121 28.9120492,11.9356999 28.6750165,12.072243 L25.9005575,13.6747069 C25.6636527,13.8113778 25.3574535,13.7290429 25.2209104,13.4925215 Z M26.3712989,17.7854473 C26.3712989,17.5122332 26.5946517,17.2881133 26.8687607,17.2881133 L30.07241,17.2881133 C30.3461355,17.2881133 30.5699997,17.5122332 30.5699997,17.7854473 C30.5699997,18.0594285 30.3461355,18.283037 30.07241,18.283037 L26.8687607,18.283037 C26.5955467,18.2834206 26.3712989,18.0594285 26.3712989,17.7854473 Z M13.4914987,10.3492172 C13.2548496,10.4857603 12.9490339,10.4041924 12.8122351,10.1670319 L11.2104105,7.39282861 C11.0736117,7.15566805 11.1553074,6.84998023 11.3922123,6.71330926 C11.6295007,6.57651045 11.9349328,6.65833404 12.0719873,6.89485535 L13.6739398,9.66944215 C13.8106107,9.90673056 13.7286593,10.2126741 13.4914987,10.3492172 Z M10.3487058,13.4925215 C10.211907,13.728915 9.90660271,13.8107386 9.66944215,13.6740676 L6.89485535,12.072243 C6.65820619,11.9351885 6.5758712,11.6298842 6.71241432,11.3927237 C6.84959668,11.1560745 7.1555402,11.0739952 7.39231721,11.2105383 L10.166904,12.8127465 C10.4039367,12.9492896 10.486016,13.2551053 10.3487058,13.4925215 Z M9.19857296,17.7854473 C9.19857296,18.0589171 8.97470873,18.283037 8.7016225,18.283037 L5.49758971,18.283037 C5.22386423,18.283037 5,18.0589171 5,17.7854473 C5,17.5114661 5.22386423,17.2881133 5.49758971,17.2874741 L8.70149465,17.2874741 C8.97470873,17.2881133 9.19857296,17.5114661 9.19857296,17.7854473 Z M21.1478855,28.2854595 C21.1478855,28.559185 20.9240212,28.7827935 20.6502958,28.7827935 L14.9190647,28.7827935 C14.6454671,28.7827935 14.4217307,28.559185 14.4217307,28.2854595 C14.4217307,28.0116062 14.6455949,27.7879976 14.9190647,27.7879976 L20.6502958,27.7879976 C20.9240212,27.7879976 21.1478855,28.0116062 21.1478855,28.2854595 Z M16.1046118,29.1541959 L19.4648765,29.1541959 C19.2314236,29.8595408 18.5681411,30.3683813 17.7849359,30.3683813 C17.0017307,30.3683813 16.3381926,29.8595408 16.1046118,29.1541959 Z M17.7849359,10.7805809 C21.6534018,10.7805809 24.7892909,13.9169814 24.7890352,17.7854473 C24.7890352,19.8415207 23.9023999,21.6921402 22.4904316,22.9734465 C22.4873632,22.9749807 22.2794801,23.1498786 22.1783513,23.2377111 C21.5148131,23.8143117 21.1468627,24.7038875 21.1468627,25.6526576 L14.4223699,25.6526576 C14.4223699,24.7038875 14.054803,23.8143117 13.3908813,23.2377111 C13.2898803,23.1500064 13.0821251,22.9751085 13.0791846,22.9734465 C11.6669605,21.6921402 10.7803252,19.8415207 10.7803252,17.7854473 C10.7803252,13.9169814 13.91647,10.7805809 17.7849359,10.7805809 Z" id="path-1"></path>
    </defs>
    <g id="Symbols" stroke="none" stroke-width="1" fill="none" fill-rule="evenodd">
        <g id="Icons/Devices/Light" transform="translate(-5.000000, -5.000000)">
            <mask id="mask-2" fill="white">
                <use xlink:href="#path-1"></use>
            </mask>
            <use id="Combined-Shape" fill="#FFFFFF" fill-rule="nonzero" xlink:href="#path-1"></use>
        </g>
    </g>
</svg>