<?xml version="1.0" encoding="UTF-8"?>
<svg width="25px" height="20px" viewBox="0 0 25 20" version="1.1" xmlns="http://www.w3.org/2000/svg" xmlns:xlink="http://www.w3.org/1999/xlink">
    <!-- Generator: Sketch 50.2 (55047) - http://www.bohemiancoding.com/sketch -->
    <title>Combined Shape</title>
    <desc>Created with Sketch.</desc>
    <defs>
        <path d="M0,16.515454 L15.8096416,16.515454 C16.1547922,15.7280686 16.9412291,15.1763632 17.8545449,15.1763632 C18.7678607,15.1763632 19.5543534,15.7280686 19.8994482,16.515454 L24.9963629,16.515454 L24.9963629,18.3009085 L19.8994482,18.3009085 C19.5542976,19.088294 18.7678607,19.6399994 17.8545449,19.6399994 C16.9412291,19.6399994 16.1547364,19.088294 15.8096416,18.3009085 L0,18.3009085 L0,16.515454 Z M0,8.92727245 L5.09691461,8.92727245 C5.44206529,8.13988702 6.22850219,7.58818158 7.14181796,7.58818158 C8.05513373,7.58818158 8.84162643,8.13988702 9.18672131,8.92727245 L24.9963629,8.92727245 L24.9963629,10.7127269 L9.18672131,10.7127269 C8.84157063,11.5001124 8.05513373,12.0518178 7.14181796,12.0518178 C6.22850219,12.0518178 5.44200949,11.5001124 5.09691461,10.7127269 L0,10.7127269 L0,8.92727245 Z M0,1.33909087 L15.8096416,1.33909087 C16.1547922,0.551705437 16.9412291,0 17.8545449,0 C18.7678607,0 19.5543534,0.551705437 19.8994482,1.33909087 L24.9963629,1.33909087 L24.9963629,3.12454536 L19.8994482,3.12454536 C19.5542976,3.91193079 18.7678607,4.46363622 17.8545449,4.46363622 C16.9412291,4.46363622 16.1547364,3.91193079 15.8096416,3.12454536 L0,3.12454536 L0,1.33909087 Z" id="path-1"></path>
    </defs>
    <g id="Symbols" stroke="none" stroke-width="1" fill="none" fill-rule="evenodd">
        <g id="Icons/Settings" transform="translate(-5.000000, -8.000000)">
            <g id="Layer_1" transform="translate(5.000000, 8.000000)">
                <mask id="mask-2" fill="white">
                    <use xlink:href="#path-1"></use>
                </mask>
                <use id="Combined-Shape" fill="#FFFFFF" fill-rule="nonzero" xlink:href="#path-1"></use>
            </g>
        </g>
    </g>
</svg>