<svg width="12" height="16" viewBox="0 0 12 16" fill="none" xmlns="http://www.w3.org/2000/svg">
<path fill-rule="evenodd" clip-rule="evenodd" d="M10.045 5.0225H9.3275V3.5875C9.3275 1.6072 7.7203 0 5.74 0C3.7597 0 2.1525 1.6072 2.1525 3.5875V5.0225H1.435C0.64575 5.0225 0 5.66825 0 6.4575V13.6325C0 14.4218 0.64575 15.0675 1.435 15.0675H10.045C10.8343 15.0675 11.48 14.4218 11.48 13.6325V6.4575C11.48 5.66825 10.8343 5.0225 10.045 5.0225ZM5.74018 11.48C4.95093 11.48 4.30518 10.8342 4.30518 10.045C4.30518 9.25574 4.95093 8.60999 5.74018 8.60999C6.52943 8.60999 7.17518 9.25574 7.17518 10.045C7.17518 10.8342 6.52943 11.48 5.74018 11.48ZM7.96412 5.02247H3.51562V3.58747C3.51562 2.36055 4.51295 1.36322 5.73987 1.36322C6.9668 1.36322 7.96412 2.36055 7.96412 3.58747V5.02247Z" transform="translate(0.371094 0.466248)" fill="white"/>
</svg>
