<?xml version="1.0" encoding="UTF-8"?>
<svg width="31px" height="23px" viewBox="0 0 31 23" version="1.1" xmlns="http://www.w3.org/2000/svg" xmlns:xlink="http://www.w3.org/1999/xlink">
    <!-- Generator: Sketch 50.2 (55047) - http://www.bohemiancoding.com/sketch -->
    <title>Combined Shape</title>
    <desc>Created with Sketch.</desc>
    <defs></defs>
    <g id="Symbols" stroke="none" stroke-width="1" fill="none" fill-rule="evenodd">
        <g id="Icons/Entities/Cell-Tower" transform="translate(-2.000000, -7.000000)" fill="#FFFFFF" fill-rule="nonzero">
            <path d="M2.83783092,19.0773462 C2.52778183,14.7716114 4.1387095,10.3662473 7.17282008,7.29318966 C7.58731542,6.89056054 8.31238854,6.94307738 8.6923426,7.36785286 C9.15230554,7.75808707 9.16041216,8.53931914 8.71231545,8.94194825 C6.1814619,11.5707862 4.81291061,15.2823876 5.08512878,18.9268449 C5.27992279,21.9544349 6.58403227,24.8873889 8.67278096,27.0842847 C8.87239195,27.2796661 9.03634553,27.5291505 9.05050276,27.8165245 C9.13491741,28.5361932 8.38270471,29.201759 7.67872057,29.0464995 C7.42594655,29.0027355 7.21546798,28.8403092 7.04722611,28.6547379 C4.58457396,26.0827638 3.07210068,22.6298109 2.83783092,19.0773462 Z M7.06026721,19.1839072 C6.70146087,15.8851564 7.9173961,12.459813 10.2745446,10.1253982 C10.6912135,9.76065879 11.3725226,9.80612639 11.7470135,10.211399 C12.199281,10.5810141 12.2500943,11.3261189 11.8400047,11.7449612 C10.3665372,13.2395764 9.43086802,15.2601237 9.27778202,17.3553342 C9.06671601,19.8996401 10.0321095,22.4992825 11.8247901,24.3109372 C12.2664837,24.7287222 12.2160817,25.5068409 11.7463085,25.8829766 C11.3637698,26.2881904 10.6640739,26.3218506 10.2588601,25.93285 C8.46230239,24.1373497 7.31944428,21.7092388 7.06026721,19.1839072 Z M11.2263683,18.696276 C11.0195906,16.6145178 11.8168009,14.4625022 13.3243985,13.013942 C13.737249,12.6173047 14.4477537,12.6632423 14.8297638,13.0810273 C15.287612,13.4603939 15.3184524,14.2206545 14.8893299,14.6329763 C14.0511164,15.4495133 13.5214248,16.5805052 13.4575704,17.7515015 C13.3628756,19.0805771 13.8877503,20.4252197 14.8217747,21.3689955 C15.0825378,21.601033 15.2427905,21.9457408 15.2011413,22.2986141 C15.1436312,23.1178533 14.0501178,23.6866095 13.3936573,23.1222591 C12.1576905,21.9826906 11.3919667,20.3641263 11.2263683,18.696276 Z M15.1166091,18.3754768 C14.8915034,17.0340063 15.9992328,15.6724455 17.3596187,15.6292102 C18.6935112,15.5047911 19.9592023,16.6822492 19.929948,18.0209587 C19.971656,19.2244403 18.9732486,20.3397476 17.7762876,20.44531 C16.5197017,20.6168415 15.2615885,19.6341187 15.1166091,18.3754768 Z M32.1340043,17.0103326 C32.4439946,21.3160087 30.8330669,25.7213728 27.7990151,28.7944304 C27.3844023,29.1970595 26.6593879,29.1446014 26.2795513,28.7197672 C25.8195884,28.329533 25.811423,27.5483009 26.2595197,27.1456131 C28.7903145,24.5168338 30.1588658,20.805115 29.8866477,17.1607164 C29.6919124,14.1330677 28.3877442,11.2001724 26.2989955,9.0032179 C26.0993257,8.80783646 25.9353722,8.55835209 25.9212737,8.2710368 C25.8368003,7.55136809 26.5889542,6.88574356 27.2930559,7.04106183 C27.5457711,7.0848846 27.7563085,7.24719336 27.9245503,7.43282336 C30.3872612,10.0048562 31.8996758,13.4578092 32.1340043,17.0103326 Z M27.911568,16.9037129 C28.2703743,20.2024637 27.0544391,23.6277484 24.6972906,25.9621631 C24.280563,26.3269025 23.5993126,26.2815524 23.2248805,25.8761623 C22.7724955,25.5065472 22.7216822,24.7613837 23.1318305,24.3426001 C24.605298,22.8481024 25.5409672,20.8274376 25.6940532,18.7322271 C25.9051192,16.1878625 24.9397257,13.5882201 23.1469864,11.7765653 C22.7053514,11.3587803 22.7556948,10.5806617 23.2254679,10.2045847 C23.6080067,9.79931212 24.3077025,9.76571074 24.7129751,10.1547701 C26.5094741,11.9502704 27.6523909,14.3783225 27.911568,16.9037129 Z M23.7454669,17.3912853 C23.9521858,19.4729848 23.155093,21.6251179 21.6474367,23.0736781 C21.2345862,23.4703153 20.5240815,23.4243778 20.1420714,23.006534 C19.6841645,22.6272262 19.6533828,21.8669656 20.0824466,21.4545263 C20.9207187,20.638048 21.4504104,19.5070561 21.5142648,18.336001 C21.6089596,17.0069842 21.0840849,15.6622829 20.1500605,14.7185658 C19.8892386,14.4864108 19.7290446,14.1417617 19.7706939,13.7888885 C19.8281452,12.9696493 20.9217174,12.4009518 21.5781192,12.9653022 C22.814086,14.1049882 23.5798097,15.7234938 23.7454669,17.3912853 Z" id="Combined-Shape"></path>
        </g>
    </g>
</svg>