<?xml version="1.0" encoding="UTF-8"?>
<svg width="26px" height="22px" viewBox="0 0 26 22" version="1.1" xmlns="http://www.w3.org/2000/svg" xmlns:xlink="http://www.w3.org/1999/xlink">
    <!-- Generator: Sketch 50.2 (55047) - http://www.bohemiancoding.com/sketch -->
    <title>Shape</title>
    <desc>Created with Sketch.</desc>
    <defs>
        <path d="M30.4347826,25.6397059 L5.56521739,25.6397059 C5.25265217,25.6397059 5,25.3619743 5,25.0183824 L5,7.62132353 C5,7.27835294 5.25265217,7 5.56521739,7 L30.4347826,7 C30.7473478,7 31,7.27835294 31,7.62132353 L31,25.0183824 C31,25.3619743 30.7473478,25.6397059 30.4347826,25.6397059 Z M29.8695652,8.24264706 L6.13043478,8.24264706 L6.13043478,24.3970588 L29.8695652,24.3970588 L29.8695652,8.24264706 Z M28.4240717,9.85002887 L7.57592825,9.85002887 L7.57592825,22.789677 L28.4240717,22.789677 L28.4240717,9.85002887 Z M16.3043478,12.5919118 C16.4253043,12.5919118 16.5304348,12.6428603 16.6225652,12.7136912 L21.0148696,15.7407794 C21.2330435,15.8259007 21.3913043,16.0501985 21.3913043,16.3198529 C21.3913043,16.5217831 21.2980435,16.6932684 21.1623913,16.8063493 L16.6553478,19.9011618 C16.5581304,19.9881471 16.4388696,20.0477941 16.3043478,20.0477941 C15.9917826,20.0477941 15.7391304,19.7700625 15.7391304,19.4264706 L15.7391304,13.2132353 C15.7391304,12.8702647 15.9917826,12.5919118 16.3043478,12.5919118 Z M12.9130435,26.8823529 L23.0869565,26.8823529 C23.3995217,26.8823529 23.6521739,27.1600846 23.6521739,27.5036765 C23.6521739,27.8472684 23.3995217,28.125 23.0869565,28.125 L12.9130435,28.125 C12.6004783,28.125 12.3478261,27.8472684 12.3478261,27.5036765 C12.3478261,27.1600846 12.6004783,26.8823529 12.9130435,26.8823529 Z" id="path-1"></path>
    </defs>
    <g id="Symbols" stroke="none" stroke-width="1" fill="none" fill-rule="evenodd">
        <g id="Icons/Devices/TV" transform="translate(-5.000000, -7.000000)">
            <mask id="mask-2" fill="white">
                <use xlink:href="#path-1"></use>
            </mask>
            <use id="Shape" fill="#FFFFFF" fill-rule="nonzero" xlink:href="#path-1"></use>
        </g>
    </g>
</svg>