<svg width="21" height="21" viewBox="0 0 21 21" fill="none" xmlns="http://www.w3.org/2000/svg">
<path d="M2.96191 8.0959C2.66572 8.0959 2.46826 7.89844 2.46826 7.60225V5.43018C2.46826 5.13398 2.66572 4.93652 2.96191 4.93652C4.04795 4.93652 4.93652 4.04795 4.93652 2.96191C4.93652 1.87588 4.04795 0.987305 2.96191 0.987305C1.87588 0.987305 0.987305 1.87588 0.987305 2.96191C0.987305 3.25811 0.789844 3.45557 0.493652 3.45557C0.197461 3.45557 0 3.25811 0 2.96191C0 1.33286 1.33286 0 2.96191 0C4.59097 0 5.92383 1.33286 5.92383 2.96191C5.92383 4.44287 4.83779 5.62764 3.45557 5.87446V7.60225C3.45557 7.89844 3.25811 8.0959 2.96191 8.0959Z" transform="translate(7.31934 5.36029)" fill="#24A98E"/>
<path d="M10 20C4.5 20 0 15.5 0 10C0 4.5 4.5 0 10 0C12.25 0 14.35 0.75 16.15 2.1C16.35 2.25 16.4 2.6 16.25 2.8C16.1 3 15.75 3.05 15.55 2.9C13.95 1.65 12 1 10 1C5.05 1 1 5.05 1 10C1 14.95 5.05 19 10 19C14.95 19 19 14.95 19 10C19 8.4 18.55 6.8 17.75 5.4C17.6 5.15 17.7 4.85 17.9 4.7C18.15 4.55 18.45 4.65 18.6 4.85C19.5 6.45 20 8.2 20 10C20 15.5 15.5 20 10 20Z" transform="translate(0.408203 0.966797)" fill="#24A98E"/>
<path d="M0.493652 2.32017C0.197461 2.32017 0 2.1227 0 1.82651V0.493652C0 0.197461 0.197461 0 0.493652 0C0.789844 0 0.987305 0.197461 0.987305 0.493652V1.82651C0.987305 2.1227 0.789844 2.32017 0.493652 2.32017Z" transform="translate(9.7876 14.6903)" fill="#24A98E"/>
</svg>
