<svg width="23" height="19" viewBox="0 0 23 19" fill="none" xmlns="http://www.w3.org/2000/svg">
<path d="M0 1.16834H13.7938C14.0949 0.481358 14.7811 0 15.5779 0C16.3748 0 17.061 0.481358 17.3621 1.16834H21.8091V2.72614H17.3621C17.0609 3.41312 16.3748 3.89448 15.5779 3.89448C14.7811 3.89448 14.0948 3.41312 13.7938 2.72614H0" transform="translate(0.261719 13.8246)" fill="#24A98E"/>
<path d="M0 1.16834H4.44701C4.74815 0.481358 5.43431 0 6.23117 0C7.02803 0 7.71423 0.481358 8.01532 1.16834H21.8091V2.72614H8.01532C7.71418 3.41312 7.02803 3.89448 6.23117 3.89448C5.43431 3.89448 4.7481 3.41312 4.44701 2.72614H0" transform="translate(0.261719 7.20395)" fill="#24A98E"/>
<path d="M0 1.16834H13.7938C14.0949 0.481358 14.7811 0 15.5779 0C16.3748 0 17.061 0.481358 17.3621 1.16834H21.8091V2.72614H17.3621C17.0609 3.41312 16.3748 3.89448 15.5779 3.89448C14.7811 3.89448 14.0948 3.41312 13.7938 2.72614H0" transform="translate(0.261719 0.583344)" fill="#24A98E"/>
</svg>
