<?xml version="1.0" encoding="UTF-8"?>
<svg width="26px" height="26px" viewBox="0 0 26 26" version="1.1" xmlns="http://www.w3.org/2000/svg" xmlns:xlink="http://www.w3.org/1999/xlink">
    <!-- Generator: Sketch 50.2 (55047) - http://www.bohemiancoding.com/sketch -->
    <title>Combined Shape</title>
    <desc>Created with Sketch.</desc>
    <defs>
        <path d="M10.0494845,15.8334171 C9.8726761,16.5008772 9.77847759,17.2019474 9.77847759,17.924985 C9.77847759,18.6480227 9.8726761,19.3490929 10.0494845,20.016553 L5,17.924985 L10.0494845,15.8334171 Z M17.9250002,5 L20.0165682,10.0494845 C19.349108,9.8726761 18.6480378,9.77847759 17.9250002,9.77847759 C17.2019222,9.77847759 16.5008924,9.8726761 15.833412,10.0494845 L17.9250002,5 Z M23.6854607,23.6854557 L23.6854456,23.6854708 C24.1829723,23.187924 24.6164354,22.6263529 24.9724373,22.0141118 L27.0643436,27.0643537 L22.0141017,24.9724474 C22.6263377,24.6164495 23.1879128,24.1829839 23.6854607,23.6854557 Z M15.8334227,25.8005113 L15.8328264,25.7990603 C16.0074684,25.8453343 16.1845348,25.8860232 16.3639076,25.9209476 C16.871436,26.0197178 17.3934899,26.0715177 17.9249901,26.0715177 C18.6480681,26.0715177 19.3490979,25.9773192 20.0165782,25.8005108 L17.9249901,30.8499953 L15.8334221,25.8005108 Z M10.8775429,22.0140916 L10.8775243,22.0140731 L10.8782598,22.0122841 C11.2346414,22.6264286 11.6678455,23.1885803 12.1644993,23.6852537 C12.6620663,24.1829622 13.2236374,24.6164253 13.8358785,24.9724272 L8.78563663,27.0643335 L10.8775429,22.0140916 Z M8.78566187,8.78564168 L13.8359189,10.8775479 C13.2236828,11.2335458 12.6621077,11.6670115 12.1645599,12.1645397 C11.6670332,12.6620865 11.2335701,13.2236576 10.8775681,13.8358987 L8.78566187,8.78564168 Z M22.0140966,10.8775378 L22.0141118,10.877553 L27.0643537,8.78564673 L24.9724474,13.8358886 C24.6164495,13.2236525 24.1829839,12.6620774 23.6854557,12.1645296 C23.1879088,11.6670029 22.6263377,11.2335398 22.0140966,10.8775378 Z M25.8005158,15.8334171 L30.8500004,17.9250052 L25.8005158,20.0165934 C25.9773243,19.3491131 26.0715228,18.6480833 26.0715228,17.9250052 C26.0715228,17.2019272 25.9773243,16.5008974 25.8005158,15.8334171 Z M11.9056864,15.5026249 C11.9057899,15.5023318 11.9059106,15.5020214 11.9060313,15.5017283 C11.9107902,15.4912965 11.9151181,15.4806751 11.9189632,15.4698812 C11.9287915,15.4458966 11.9387233,15.4219982 11.9487929,15.3981517 C12.2409357,14.7080852 12.6491034,14.079075 13.1488096,13.5356032 C13.2105382,13.4685292 13.2736981,13.4026969 13.3381854,13.3381925 C13.4033279,13.2730671 13.4698154,13.2093037 13.5375962,13.1469891 C14.099134,12.6310914 14.7519036,12.2128887 15.4689224,11.9193677 C15.4745607,11.9170744 15.4801818,11.9147639 15.4858029,11.9124361 C16.2388046,11.6067069 17.0622263,11.4382981 17.924977,11.4382981 C18.7813291,11.4382981 19.5989215,11.6042219 20.3473377,11.9056915 C20.3476309,11.905795 20.3479412,11.9059157 20.3482344,11.9060364 C20.3586661,11.9107953 20.3692876,11.9151232 20.3800814,11.9189683 C20.404066,11.9287966 20.4279644,11.9387284 20.4518109,11.948798 C21.1418774,12.2409408 21.7708877,12.6491085 22.3143595,13.1488147 C22.3815022,13.2105433 22.4473174,13.2736857 22.5118047,13.3381559 C22.5768955,13.403333 22.6406589,13.4698205 22.7029735,13.5376013 C23.2188712,14.0991391 23.6370739,14.7519087 23.930595,15.4689275 C23.9328882,15.4745658 23.9351988,15.4801869 23.9375265,15.485808 C24.2432557,16.2388097 24.4116645,17.0622314 24.4116645,17.9249821 C24.4116645,18.7813342 24.2457407,19.5989266 23.9442711,20.3473428 C23.9441677,20.347636 23.944047,20.3479463 23.9439263,20.3482567 C23.9391328,20.358723 23.9348222,20.3693617 23.9309426,20.38019 C23.9211488,20.4041225 23.9111998,20.4280036 23.9011646,20.4518157 C23.6090218,21.1418822 23.2008541,21.7708924 22.7011479,22.3143642 C22.6394193,22.3815069 22.576277,22.4473222 22.5118067,22.5118095 C22.4466296,22.5769003 22.3801421,22.6406637 22.3123613,22.7029783 C21.7508236,23.218876 21.0980539,23.6370787 20.3810351,23.9305997 C20.3753968,23.932893 20.3697757,23.9352035 20.3641546,23.9375313 C19.6111529,24.2432605 18.7877312,24.4116693 17.9249805,24.4116693 C17.0686285,24.4116693 16.251036,24.2457455 15.5026198,23.9442759 C15.5023267,23.9441724 15.5020163,23.9440518 15.5017232,23.9439311 C15.4912569,23.9391721 15.4806182,23.9348269 15.4697899,23.9309474 C15.4458574,23.9211536 15.4219762,23.9112046 15.3981642,23.9011694 C14.7414266,23.6231334 14.1400036,23.2400565 13.6149832,22.7729522 C13.5201831,22.6886011 13.4278489,22.6015088 13.3381529,22.5118128 C13.2546641,22.428169 13.173469,22.3424904 13.0946528,22.2547254 C12.6027555,21.7063222 12.2028836,21.0736594 11.9193635,20.3810395 C11.9170702,20.3754012 11.9147597,20.36978 11.9124319,20.364159 C11.6067027,19.6111572 11.438294,18.7877356 11.438294,17.9249849 C11.438294,17.0686328 11.6042177,16.2510404 11.9056873,15.5026241 Z" id="path-1"></path>
    </defs>
    <g id="Symbols" stroke="none" stroke-width="1" fill="none" fill-rule="evenodd">
        <g id="Icons/Devices/Solar" transform="translate(-5.000000, -5.000000)">
            <mask id="mask-2" fill="white">
                <use xlink:href="#path-1"></use>
            </mask>
            <use id="Combined-Shape" fill="#FFFFFF" xlink:href="#path-1"></use>
        </g>
    </g>
</svg>