<svg width="121" height="25" viewBox="0 0 121 25" fill="none" xmlns="http://www.w3.org/2000/svg">
  <path fill-rule="evenodd" clip-rule="evenodd" d="M56.0009 8.79318C57.3029 8.30774 58.2314 8.14594 59.3688 8.14594C63.795 8.15253 66.6793 11.225 66.6868 16.0238C66.6756 21.6259 63.1374 24.5065 56.1288 24.5197C54.4891 24.5197 53.1692 24.3946 51.0328 24.0785V0H55.8579V8.84775L56.0009 8.79318ZM17.5873 1.66138L17.7595 1.17688H23.1245L22.8207 1.98309C21.6429 5.31711 20.1706 9.17889 18.5356 13.2335C17.1611 16.7002 15.9203 19.6438 14.1846 23.5686L13.8826 24.324H8.49778L8.19769 23.5432C6.55984 19.5817 5.61156 17.131 4.14024 13.0736C2.60305 8.92017 1.68676 6.27197 0.314209 2.1167L0 1.17688H5.56453L5.7047 1.65665C5.85317 2.10208 5.9931 2.54657 6.13294 2.99081C6.27132 3.43039 6.40962 3.86975 6.55608 4.30957L6.64353 4.56998L6.64408 4.57162C6.83111 5.12869 6.97704 5.56329 7.1478 6.0462L8.45639 10.0369L10.0585 14.7171C10.8092 16.9429 10.8722 17.1865 11.2984 19.3164H11.5063C11.8657 17.5854 12.0896 16.9118 12.844 14.8168L14.6089 10.0735C14.7502 9.69016 14.879 9.33173 15.0564 8.83826C15.1671 8.53012 15.2968 8.16934 15.4603 7.71695C15.6611 7.15042 15.8526 6.61206 16.0342 6.10123L16.0352 6.09848C16.6816 4.2804 17.2041 2.81104 17.5873 1.66138ZM20.6391 16.481C20.6485 11.3896 23.7925 8.12054 28.6157 8.11301C33.2423 8.12335 35.8595 11.019 35.8707 16.2204C35.8707 16.4819 35.8707 16.9372 35.8378 17.4885L35.8143 17.7491H25.293L25.3024 17.8629C25.4651 19.9222 27.0851 21.0474 29.7596 21.0361C31.7042 21.0361 33.4982 20.5441 35.0194 19.5883V23.2224C33.1219 24.2092 31.1623 24.6852 29.0418 24.6852C23.7163 24.674 20.6504 21.6682 20.6391 16.481ZM25.3503 14.4621L25.3701 14.3389C25.6307 12.5646 26.865 11.431 28.6157 11.4357C30.2996 11.4263 31.3128 12.4818 31.468 14.3445L31.4784 14.4621H25.3503ZM60.5541 19.5864C59.7366 20.323 58.5127 20.6758 56.8814 20.6758H55.9651H55.8579V12.3821L55.9294 12.3577C56.6575 12.0924 57.2634 11.9898 57.9943 11.9898C59.1759 11.9889 60.1279 12.3859 60.7752 13.1263C61.4224 13.8685 61.762 14.9438 61.762 16.2844C61.7639 17.7416 61.3707 18.8498 60.5541 19.5864ZM76.4612 24.5234C73.7566 24.5234 71.923 23.9995 70.7763 22.9467C69.5956 21.8574 69.1761 20.5347 69.1714 17.561V8.50626H73.9983V17.6277C74.0002 18.6645 74.1432 19.3738 74.5712 19.8291C75.0031 20.2844 75.6832 20.4481 76.6898 20.4481C77.386 20.4481 78.1122 20.3493 78.7717 20.2186L78.8582 20.1998V8.50626H83.6833V23.752L83.1509 23.8367C80.4378 24.3268 78.5158 24.5197 76.4612 24.5234ZM94.9864 8.14594C92.532 8.14594 90.1096 8.49777 87.1735 9.2673V24.324H92.0005V12.3765L92.0758 12.3539C93.0974 12.0585 93.7352 11.9898 94.4295 11.9898C95.3411 11.9898 95.9893 12.1714 96.4089 12.6248C96.8256 13.0783 96.9874 13.7697 96.9893 14.7453L96.9874 24.324H101.816V14.5524C101.814 12.0359 101.495 10.907 100.471 9.84869C99.3901 8.73297 97.5547 8.14594 94.9864 8.14594ZM104.312 16.5139C104.32 11.4263 107.655 8.15347 112.877 8.14594C113.689 8.14594 114.297 8.21085 115.04 8.40463L115.175 8.4404V0H120V23.8508C117.464 24.3306 115.595 24.5215 113.563 24.5234C107.439 24.5065 104.323 21.7943 104.312 16.5139ZM115.176 12.2834V20.5328L115.084 20.546C114.359 20.6438 113.896 20.6767 113.335 20.6767C112.024 20.6767 110.992 20.3023 110.292 19.5723C109.594 18.8451 109.238 17.7773 109.238 16.417C109.238 15.0247 109.61 13.9146 110.322 13.1517C111.029 12.3915 112.07 11.9898 113.368 11.9898C113.996 11.9898 114.501 12.0585 115.104 12.258L115.176 12.2834ZM45.9038 8.14594C47.1437 8.14594 48.044 8.27295 49.0271 8.55139H49.0262V12.5919C48.2341 12.337 47.4015 12.2203 46.4589 12.2203C45.3046 12.2203 44.3074 12.3849 43.2509 12.75L43.1804 12.7735V24.3249H38.3543V9.64926C40.8736 8.65677 43.487 8.14594 45.9038 8.14594Z" transform="translate(0.5)" fill="white"/>
</svg>
